<svg id="Layer_1" data-name="Layer 1" xmlns="http://www.w3.org/2000/svg" xmlns:xlink="http://www.w3.org/1999/xlink" width="1080" height="1080" viewBox="0 0 1080 1080">
  <defs>
    <style>
      .cls-1, .cls-9 {
        fill: #a9a9a9;
      }

      .cls-1 {
        clip-rule: evenodd;
      }

      .cls-2 {
        fill: #b7e1e4;
        stroke: #b7e1e4;
      }

      .cls-12, .cls-14, .cls-15, .cls-17, .cls-18, .cls-19, .cls-2, .cls-20, .cls-22 {
        stroke-miterlimit: 10;
      }

      .cls-2, .cls-22 {
        stroke-width: 2px;
      }

      .cls-3 {
        fill: #d7f9f6;
      }

      .cls-4 {
        fill: #1abab3;
      }

      .cls-5 {
        fill: #75d8d0;
      }

      .cls-6 {
        fill: #ecc19c;
      }

      .cls-7 {
        fill: #08524d;
      }

      .cls-8 {
        fill: #ec4441;
      }

      .cls-21, .cls-22, .cls-9 {
        fill-rule: evenodd;
      }

      .cls-10 {
        clip-path: url(#clip-path);
      }

      .cls-11 {
        fill: #231f20;
      }

      .cls-12, .cls-14, .cls-15, .cls-17, .cls-18, .cls-19, .cls-20, .cls-22 {
        fill: none;
      }

      .cls-12 {
        stroke: #8beae5;
        stroke-width: 7px;
      }

      .cls-13 {
        fill: #cc966d;
      }

      .cls-14, .cls-22 {
        stroke: #08524d;
      }

      .cls-14, .cls-18 {
        stroke-width: 4px;
      }

      .cls-15, .cls-17, .cls-20 {
        stroke: #a46c35;
      }

      .cls-15 {
        stroke-width: 2.04023px;
      }

      .cls-16 {
        fill: #a46c35;
      }

      .cls-17 {
        stroke-width: 2.50191px;
      }

      .cls-18 {
        stroke: #c62424;
      }

      .cls-19 {
        stroke: #052d29;
        stroke-width: 3px;
      }

      .cls-20 {
        stroke-width: 2.43429px;
      }

      .cls-21, .cls-23 {
        fill: #136d64;
      }
    </style>
    <clipPath id="clip-path">
      <path class="cls-1" d="M92.01628,383.11577,231.236,380.10062a5.64575,5.64575,0,0,1,4.6665,2.29405l83.10566,112.692a5.64592,5.64592,0,0,0,4.6667,2.294l105.685-2.28886a5.64648,5.64648,0,0,1,5.76731,5.52289h0a5.64679,5.64679,0,0,1-5.52288,5.76753l-255.96481,5.54339a5.64654,5.64654,0,0,1-4.76453-2.43061L87.49616,391.97558A5.64661,5.64661,0,0,1,92.01628,383.11577Z"/>
    </clipPath>
  </defs>
  <line class="cls-2" x1="20.96452" y1="775.03924" x2="1059.03548" y2="775.03924"/>
  <path class="cls-3" d="M518.95457,659.81088s82.75185-68.22783,65.72805-245.81882C568.09981,240.99981,377.51753,259.10454,342.82033,268.63338s-89.31409,202.00473-93.3026,280.57617S65.94442,610.87006,65.94442,610.87006l36.46713,16.99162L275.79016,681.995s72.2057,22.09437,144.88106-12.93094C470.89935,644.85707,518.6663,658.02327,518.95457,659.81088Z"/>
  <polygon class="cls-4" points="325.064 178.162 328.34 281.101 369.369 271.839 370.627 187.7 325.064 178.162"/>
  <g>
    <polygon class="cls-5" points="493.825 669.274 548.352 822.757 539.813 823.015 469.432 668.945 493.825 669.274"/>
    <polygon class="cls-5" points="497.456 668.098 548.352 822.757 543.658 822.899 479.46 668.642 497.456 668.098"/>
    <polygon class="cls-5" points="460.937 668.5 432.907 872.183 423.518 872.466 443.263 668.327 460.937 668.5"/>
    <polygon class="cls-5" points="456.086 669.524 432.907 872.183 423.518 872.466 438.015 667.922 456.086 669.524"/>
  </g>
  <g>
    <polygon class="cls-5" points="165.339 644.697 210.417 793.879 198.939 793.619 141.988 638.551 165.339 644.697"/>
    <polygon class="cls-5" points="168.155 645.62 210.417 793.879 205.722 793.772 156.068 641.703 168.155 645.62"/>
    <polygon class="cls-5" points="141.988 638.551 58.63 837.033 49.257 836.413 120.902 630.707 141.988 638.551"/>
    <polygon class="cls-5" points="126.283 633.371 58.63 837.033 49.257 836.413 115.942 630.485 126.283 633.371"/>
  </g>
  <path class="cls-5" d="M517.05776,663.317s-94.05206,57.08656-227.12021,27.17964l72.23894-48.68946,134.78391-6.89665Z"/>
  <path class="cls-6" d="M425.25889,226.44441s-4.19656,24.86359,6.30751,45.04271c10.50387,20.17892,41.03783,24.91118,51.03,28.14338,9.99238,3.232,34.66408,1.07365,53.40194,59.87622s5.61448,168.32164.7436,174.53912c-10.20806,13.03-81.91024,2.47319-81.91024,2.47319l-.07413-35.32659s23.23807-2.82194,40.20633-2.62738c0,0-9.87794-69.67157-12.44156-107.75952s-151.32328-2.49876-151.32328-2.49876l-33.47749,81.1623-37.096-42.6329S273.49641,326.44011,288.47691,307.612c14.98028-18.8283,30.34433-24.9464,62.20511-23.08119,31.86078,1.865,12.17987-41.36033,12.17987-41.36033Z"/>
  <path class="cls-7" d="M303.08711,346.74963s1.69229,30.79126-4.36432,40.86892l9.84729,63.29685s4.153,27.70865,10.82525,61.432c6.67244,33.7233,144.56061,12.59754,144.56061,12.59754s4.30833-67.97961,21.53758-105.9585-7.02973-92.37415-31.91463-97.27676c-12.1335-2.39067-54.32432,60.37208-83.0077,59.75436C340.42788,380.81466,323.57167,317.52109,303.08711,346.74963Z"/>
  <path class="cls-8" d="M316.22978,501.13454s-84.97984-5.56187-138.34409-17.37908c-53.36426-11.81742-96.70548-7.68157-105.61052,25.09847C63.37034,541.634,272.52532,598.57445,317.909,603.565c45.38385,4.99057,61.10181-106.4464,61.10181-106.4464Z"/>
  <path class="cls-7" d="M454.785,290.86178l-75.77421,67.859-33.60766-74.428s-36.9165-4.49555-52.64569,12.94176c-15.729,17.4373-41.57811,73.71736-41.57811,73.71736L301.11838,403.017c10.69844,3.21088,176.69569-4.295,176.69569-4.295s3.20411,13.95744,3.24949,25.69891l72.98961-22.87674s-6.12856-22.11476-13.57178-45.70669c-7.62025-24.15334-19.62692-44.07061-37.98551-52.56721C479.55877,292.65442,454.785,290.86178,454.785,290.86178Z"/>
  <g>
    <path class="cls-9" d="M92.01628,383.11577,231.236,380.10062a5.64575,5.64575,0,0,1,4.6665,2.29405l83.10566,112.692a5.64592,5.64592,0,0,0,4.6667,2.294l105.685-2.28886a5.64648,5.64648,0,0,1,5.76731,5.52289h0a5.64679,5.64679,0,0,1-5.52288,5.76753l-255.96481,5.54339a5.64654,5.64654,0,0,1-4.76453-2.43061L87.49616,391.97558A5.64661,5.64661,0,0,1,92.01628,383.11577Z"/>
    <g class="cls-10">
      <polygon class="cls-9" points="222.295 374.421 328.549 523.933 450.417 518.131 428.665 473.419 262.057 374.463 222.295 374.421"/>
    </g>
  </g>
  <path class="cls-11" d="M167.39605,557.94993s-15.14323.1799-15.30232,16.49043c-.15909,16.31074,11.2363,36.75449,30.75648,49.33406,19.52038,12.57935,59.102-10.0628,59.102-10.0628Z"/>
  <path class="cls-11" d="M271.11368,559.53278c3.33485-1.312,11.045,16.78664,4.0848,31.707s-50.4341,34.11878-83.16474,28.21968c-14.18053-2.55573-41.038-49.62176-28.27589-60.71587,12.76232-11.09391,30.04639,7.84643,44.74935,8.51247C223.21036,567.92187,248.47133,568.44,271.11368,559.53278Z"/>
  <path class="cls-8" d="M508.26612,564.59934l-59.13358-85.85343c-17.86372-29.8517-60.10313-24.33573-79.25618-3.26114-19.15326,21.07459-85.85611,82.457-135.02875,92.42285-33.80188,6.85058,4.59257,30.84185,35.95574,53.32565,14.262,10.2243,17.82569,26.54836,28.74141,29.5328,34.91972,9.54713,160.88677,14.93158,202.61448-7.53132S508.26612,564.59934,508.26612,564.59934Z"/>
  <path class="cls-6" d="M290.35021,592.0286s15.45886,8.72133,28.201,9.39674-.84866,30.41649-.84866,30.41649-38.98589-3.77015-45.40495-5.69663S290.35021,592.0286,290.35021,592.0286Z"/>
  <path class="cls-11" d="M320.86264,596.05481c-3.75186-.14709-14.41395,25.87879-2.37916,38.2372s96.41765-1.85108,103.36153-5.9481c6.94389-4.0968,4.95042-70.11929,4.95042-70.11929-16.45387-6.57079-27.01641,18.13156-41.33194,23.86455S346.33633,597.0525,320.86264,596.05481Z"/>
  <path class="cls-3" d="M517.05776,659.01778s-18.84591-58.01583-177.96762-32.769C207.912,647.062,208.00727,638.68786,178.009,628.28523c0,0,64.72463,60.9572,139.57349,58.69723,41.75282-1.26068,92.3827-13.31059,140.41826-33.13027C482.74942,643.64078,517.05776,659.01778,517.05776,659.01778Z"/>
  <path class="cls-12" d="M518.9116,659.69132s-54.88295-15.30526-79.14957.26953-118.91084,41.049-172.53094,20.75816c-53.6201-20.29068-125.243-42.16761-152.77308-50.51493-19.22877-5.8303-49.96149-16.16055-49.96149-16.16055"/>
  <path class="cls-8" d="M297.66855,588.62718l-9.24864,44.80551s-111.1358-29.15554-152.70911-48.39657c-41.57352-19.2408-74.28713-49.35082-62.45107-78.68567,11.83606-29.33464,60.27884-16.66214,97.57278,1.29449,3.9413,1.89768,8.46613,4.29872,13.40713,7.07553C226.05243,538.21893,297.66855,588.62718,297.66855,588.62718Z"/>
  <path class="cls-13" d="M425.373,229.50976s-26.85535,95.33029-60.65983,51.06329c5.81041-5.73206,5.88219-15.61736,4.23217-24.677C393.69917,239.82055,425.373,229.50976,425.373,229.50976Z"/>
  <line class="cls-14" x1="318.07693" y1="206.25239" x2="340.84406" y2="185.86759"/>
  <path class="cls-6" d="M330.65584,165.90437s-3.426,54.50731,13.93285,83.68283c17.359,29.1753,25.7815,36.52141,59.89211,8.73056,34.11038-27.79084,30.54412-80.77138,20.4338-91.97551C414.80449,155.13832,335.83154,121.70081,330.65584,165.90437Z"/>
  <path class="cls-15" d="M361.82574,263.318a11.99,11.99,0,0,0,6.76694.10243"/>
  <path class="cls-16" d="M360.71724,204.1351a19.05716,19.05716,0,0,1,6.71337-5.83923,22.95334,22.95334,0,0,1,8.70508-2.45227,21.45616,21.45616,0,0,1,9.00977,1.20336,16.96985,16.96985,0,0,1,4.05176,2.11951,10.189,10.189,0,0,1,3.05468,3.37824,34.05558,34.05558,0,0,0-8.04492-1.34833,54.59169,54.59169,0,0,0-7.66943.04095,67.35205,67.35205,0,0,0-7.6582,1.04285C366.28462,202.8085,363.68257,203.5209,360.71724,204.1351Z"/>
  <path class="cls-16" d="M347.27729,204.34726a47.95145,47.95145,0,0,1-5.40185-1.2248c-1.53125-.39685-2.87988-.76446-4.20117-1.13122-1.32471-.355-2.62061-.72119-4.05567-1.07666-.728-.20722-1.46338-.343-2.30078-.53149a18.02955,18.02955,0,0,0-2.84033-.35328,5.45245,5.45245,0,0,1,1.7959-2.75964,8.65988,8.65988,0,0,1,2.82764-1.58344,10.75716,10.75716,0,0,1,6.334-.1394,11.50669,11.50669,0,0,1,5.30908,3.19562A9.3993,9.3993,0,0,1,347.27729,204.34726Z"/>
  <path class="cls-17" d="M348.08927,213.03789c9.70324,3.4816-1.99846,27.86339,1.05664,30.35818.61528.50244,4.16143,3.3237,7.69391,2.75317"/>
  <path class="cls-18" d="M331.02645,511.927s-40.79783,35.51795-74.08335,48.76668"/>
  <path class="cls-18" d="M184.23964,514.72047c14.42457,2.3458,113.42891,73.90671,113.42891,73.90671h0l-9.24864,44.80551"/>
  <path class="cls-19" d="M306.01719,360.3195s-7.2944,16.83986-4.89881,42.6975"/>
  <path class="cls-19" d="M468.50125,391.07821c0,1.25655,9.10992,35.48258,9.10992,35.48258l34.761-11.9528"/>
  <path class="cls-20" d="M352.66889,254.04729s12.57457,4.64859,25.21816-1.19771"/>
  <path class="cls-20" d="M385.74613,214.83209s-8.86182-5.42717-18.67294-.40234"/>
  <path class="cls-20" d="M327.085,212.007s9.08214-5.04984,18.67335.383"/>
  <circle class="cls-16" cx="374.25729" cy="216.51949" r="4.23546"/>
  <circle class="cls-16" cx="338.72826" cy="214.10834" r="4.23546"/>
  <line class="cls-14" x1="394.85005" y1="210.09812" x2="434.21072" y2="183.94283"/>
  <path class="cls-14" d="M358.381,211.58257s-3.80119-5.53773-10.60908-1.487"/>
  <path class="cls-14" d="M346.84229,210.13368s-20.54431-5.37589-28.16363-3.88129c0,0-1.32511,21.22391,15.45629,24.91349C350.91613,234.85547,346.84229,210.13368,346.84229,210.13368Z"/>
  <path class="cls-14" d="M394.58832,210.00093s-29.23-1.06339-34.41565.30516c-5.18564,1.36813,1.53676,22.23745,11.80992,23.59185C382.25575,235.25213,393.96742,234.85927,394.58832,210.00093Z"/>
  <path class="cls-4" d="M341.44579,193.01388l69.41155,2.4904,9.69132-13.09719,1.367,11.75135,15.58-2.962-3.12717,22.82027-8.99559,9.79418-7.65186,50.29335,31.51359-6.48758s34.8767-164.08811-70.22393-150.15443c0,0-80.34774,12.17811-62.87028,76.84473l16.00166-.32326,9.30365-25.53475Z"/>
  <path class="cls-6" d="M420.15477,197.03021s10.20556-13.61831,18.0857-7.94973c5.92624,4.26287,1.80134,35.83949-12.41262,35.18965C406.27293,223.37636,420.15477,197.03021,420.15477,197.03021Z"/>
  <path class="cls-15" d="M434.14338,198.1319c.41647-1.45733-1.17487-2.94845-2.6776-2.75083a3.58973,3.58973,0,0,0-2.81985,3.153,7.28315,7.28315,0,0,0,1.04691,4.34654c.7195,1.334,1.63251,2.56042,2.29093,3.92562a5.0883,5.0883,0,0,1,.61742,2.57372c-.12683,1.57392-1.34922,2.79692-2.34286,4.0241s-1.84153,2.91808-1.128,4.32671"/>
  <path class="cls-21" d="M721.669,452.79255s-11.705-15.11235-24.03126-25.25029c-1.34649-8.71564-2.14111-17.15248-2.80084-24.96077a28.20766,28.20766,0,0,0,13.68205.0771c-5.64388-1.806-10.91182-6.33879-14.517-10.059q-.13626-1.57-.27651-3.09079c-3.28734-35.34032,13.97185-77.66642,17.25918-78.89918,1.75947-.65988,15.52676,5.28253,30.40009,20.26329l-2.86735,27.81582,2.87636,5.34219,13.65358-16.75667a139.27381,139.27381,0,0,1,20.45411,44.70023c16.02642,60.81805-25.478,122.04722-25.478,122.04722-29.82533-18.17468-42.86781-44.40856-49.173-70.1618A106.4796,106.4796,0,0,1,721.669,452.79255Z"/>
  <path class="cls-22" d="M724.09552,605.65985s20.66452,48.774,18.4921,149.16884"/>
  <path class="cls-22" d="M796.37569,451.36853s-21.49076,32.24409-26.422,104.36291-5.5476,201.56293-5.5476,201.56293"/>
  <path class="cls-22" d="M821.73127,497.17336s-28.97079,6.78051-38.83321,48.07926c-9.86229,41.29889-12.94435,212.65813-12.94435,212.65813"/>
  <path class="cls-21" d="M617.45848,509.50133c8.62952-17.05363,42.326-10.47867,56.29767-4.72566,6.29916,2.59371,16.06847,6.36911,26.87141,13.58005l2.09936,28.746,6.60069-22.29526a115.62574,115.62574,0,0,1,22.20157,24.48615l-6.4063,31.7111,14.5715-18.04065c.20985.401.4247.78576.633,1.19243,21.574,42.12069-8.42411,71.297-8.42411,71.297-11.30077-31.02548-72.7352-82.80319-88.55606-90.81633C627.526,536.62295,608.82882,526.55511,617.45848,509.50133Z"/>
  <path class="cls-21" d="M901.04156,410.05548c13.9833-3.20723,37.25756,2.797,56.77072,8.76041L956.312,433.27324l9.12646-12.07893c8.18536,2.59271,15.25225,4.91978,20.04772,6.1637l-6.3674,14.95573,20.95306-11.14527c17.33658,4.808,38.63252,12.04788,38.63252,19.77493,0,10.06785-15.41,12.328-43.55916,13.56074-28.14883,1.23277-138.69016-13.35533-138.69016-13.35533S878.64546,415.19211,901.04156,410.05548Z"/>
  <g>
    <path class="cls-23" d="M1026.8353,461.07748c4.60349-1.287,6.7323-2.12094,6.7323-2.12094A19.07789,19.07789,0,0,1,1026.8353,461.07748Z"/>
    <path class="cls-23" d="M807.143,461.42222c4.636-6.55836,10.83529-10.4299,18.24864-12.5527,4.37162,16.26688,13.2908,21.18222,13.2908,21.18222-3.95392-7.90814-4.0788-16.41307-3.19278-23.00391,18.538-1.74916,42.33483,3.17433,67.81185,4.92278,37.278,2.55838,100.23089,12.91661,123.53376,9.10687-12.8036,3.57929-44.76089,10.66563-103.39778,13.08354C843.71625,477.44864,802.212,509.9123,802.212,509.9123S790.295,485.25636,807.143,461.42222Z"/>
  </g>
  <path class="cls-21" d="M778.11533,369.18888c8.06921,14.76833,15.05614,20.31994,15.05614,20.31994-4.37921-7.61562-7.25657-18.40427-9.08584-27.79365a175.5302,175.5302,0,0,1,13.96742-14.37667c8.88142,17.161,21.04489,30.58361,15.66522,17.9252-3.56628-8.39135-4.4533-19.13323-4.4689-27.64416q2.23689-1.8307,4.4689-3.58673c25.06677-19.72487,72.32409-17.67016,72.32409-17.67016a311.74,311.74,0,0,0-32.87449,39.44959C828.30751,390.98033,790.295,465.94246,790.295,465.94246s-28.35439-22.60137-28.35439-53.83227C761.94057,396.66468,768.47905,382.22664,778.11533,369.18888Z"/>
  <path class="cls-22" d="M726.18929,357.86695s26.50523,144.23763,28.97077,212.65814c2.46568,68.42036,1.84929,188.61843,1.84929,188.61843"/>
  <path class="cls-9" d="M783.99823,837.59268H725.62082a72.7511,72.7511,0,0,1-44.63528-66.837,71.63668,71.63668,0,0,1,11.85175-39.51654H816.78146a71.63889,71.63889,0,0,1,11.85177,39.51654A72.75129,72.75129,0,0,1,783.99823,837.59268Z"/>
</svg>
